<svg xmlns="http://www.w3.org/2000/svg" width="201.446" height="42.683" viewBox="0 0 201.446 42.683">
  <g id="Logo" transform="translate(-374.315 -5826.96)">
    <path id="Path_3846" data-name="Path 3846" d="M-209.347-292.45l3.139,9.77,48.456.039,2.943-9.809Z" transform="translate(584.347 6120.533)" fill="#3c5432"/>
    <path id="Union_24" data-name="Union 24" d="M361.745-373.828l22.523-17.853,22.185,17.4v9l-21.754-14.5-22.954,16Zm-1.607-21.4L357-405h54.536l-2.942,9.809Z" transform="translate(18 6232.459)" fill="#9fc93a" stroke="rgba(0,0,0,0)" stroke-miterlimit="10" stroke-width="1"/>
    <path id="Union_23" data-name="Union 23" d="M431.046-368.934l-9.081-18.677L430.144-405h9.6l-8.695,17.2,9.789,18.87Zm-27.951,0,9.789-18.87L404.189-405h9.6l8.179,17.389-9.081,18.677Zm81.82-5.955-5.63-14.389,2.111-5.161,8.446,19.55Zm-19.394,0,9.7-23.93h4.457l-9.7,23.93Zm-7.094,0-5.63-14.389,2.111-5.161,8.446,19.55Zm-19.393,0,9.7-23.93h4.458l-9.7,23.93Zm-39.488,0-5.63-14.389,2.111-5.161,8.446,19.55Zm-19.394,0,9.7-23.93h4.457l-9.7,23.93Zm-6.061,0-11.848-13.177,5.826-10.987h4.067l-4.771,11.1,11.379,13.06Zm-17.09,0v-24.05h4.072v24.05Z" transform="translate(85.159 6235.336)" fill="#3c5432" stroke="rgba(0,0,0,0)" stroke-miterlimit="10" stroke-width="1"/>
  </g>
</svg>