<svg version="1.2" xmlns="http://www.w3.org/2000/svg" viewBox="0 0 150 150" width="150" height="150"><style>.a{fill:#3e5434}.b{fill:#9fc839}</style><path class="a" d="m14 72.5c0-33.4 27.1-60.5 60.5-60.5 33.4 0 60.5 27.1 60.5 60.5v1c0 33.4-27.1 60.5-60.5 60.5-33.4 0-60.5-27.1-60.5-60.5z"/><path class="b" d="m109.1 97.5l-0.6 7.6-7.9 1z"/><path class="b" d="m41.7 47.3l0.7-7.6 7.9-1z"/><path class="b" d="m100.2 39.6l7.6 0.6 1.1 7.9z"/><path class="b" d="m41.3 97.9l8.7 8.6-7.6-0.7z"/><path fill-rule="evenodd" class="b" d="m119.4 75.9c-1.7 1.6-4.3 1.8-6.1 0.5-1.6 17-14.3 30.7-30.7 34 0 1.7-0.7 3.4-2 4.7-2.7 2.6-7 2.5-9.6-0.2-1.2-1.2-1.8-2.7-1.9-4.2-17-2.7-30.4-16.5-32.2-33.9-1.8 0.8-4 0.4-5.5-1.1-1.8-1.9-1.8-5 0.2-6.9 1.5-1.5 3.6-1.7 5.4-0.9 2.2-17 15.4-30.5 32.3-33 0.3-1.3 0.9-2.4 1.9-3.4 2.7-2.6 6.9-2.5 9.5 0.2 1 1 1.5 2.2 1.8 3.4 16.2 3.2 28.7 16.6 30.7 33.2 1.9-1.3 4.6-1.1 6.3 0.6 1.9 2 1.8 5.1-0.1 7zm-65.5-21.2h42.3c-5.1-6-12.7-9.8-21.1-9.8-8.5 0-16.1 3.8-21.2 9.8zm37.6 40.6l-15.4-12.9-16.5 13.6c4.4 2.9 9.7 4.6 15.5 4.6 6.1 0 11.8-2 16.4-5.3zm11.4-22.5c0-2.2-0.3-4.4-0.8-6.5h-54.1c-0.5 2.1-0.8 4.3-0.8 6.5 0 5.4 1.6 10.4 4.2 14.7l24.4-19 23.2 18.4c2.5-4.1 3.9-8.9 3.9-14.1z"/><path fill-rule="evenodd" class="b" d="m130.9 72.8c0 30.8-25 55.8-55.8 55.8-30.9 0-55.9-25-55.9-55.8 0-30.9 25-55.8 55.9-55.8 30.8 0 55.8 24.9 55.8 55.8zm-13.3 23.8l-9.8-9.5h13.9c1.4-4.5 2.1-9.3 2.1-14.3 0-4.5-0.6-8.8-1.7-12.9h-14.3l10.4-9.9c-4.5-8.5-11.4-15.4-19.8-20l-9.4 9.4 0.3-13.3c-4.5-1.3-9.3-2.1-14.2-2.1-4.6 0-8.9 0.6-13.1 1.8l0.3 12.9-9.4-9.4c-8.7 4.5-15.9 11.5-20.6 20.1l10.2 9.7h-14.2c-1.3 4.4-2 8.9-2 13.7 0 4.7 0.7 9.2 1.9 13.5h14.3l-10.2 9.8c4.3 8 10.9 14.7 18.9 19.2l10-10.1-0.3 14.2c4.5 1.4 9.2 2.1 14.2 2.1 4.5 0 9-0.6 13.2-1.8l-0.3-13.8 9.9 9.9c8.3-4.4 15.1-11.1 19.7-19.2z"/></svg>